<svg xmlns="http://www.w3.org/2000/svg" viewBox="0 0 157.827 182.077">
    <defs>
        <style>
            .cls-1{fill:#fff}.cls-2{fill:#008cff}.cls-3{fill:#0074d4}.cls-4{fill:#00c8ff}.cls-5{fill:#ffea55}.cls-6{fill:#fff096}.cls-7{fill:#f0d250}
        </style>
    </defs>
    <g id="Groupe_117" data-name="Groupe 117">
        <path id="Tracé_569" d="M19 45.654L60.146 22l40.947 23.654v47.308l-40.947 23.853L19 92.962z" class="cls-1" data-name="Tracé 569" transform="translate(18.767 21.73)"/>
        <path id="Tracé_570" d="M0 45.519L78.913 0l78.913 45.519-37.965 21.865L78.913 43.73 37.767 67.384z" class="cls-2" data-name="Tracé 570"/>
        <path id="Tracé_571" d="M78.913 159.458v-43.532L37.767 92.073V44.765L0 22.9v91.038z" class="cls-3" data-name="Tracé 571" transform="translate(0 22.619)"/>
        <path id="Tracé_572" d="M118.613 113.938V22.9L80.647 44.765v47.308L39.7 115.926v43.532z" class="cls-4" data-name="Tracé 572" transform="translate(39.213 22.619)"/>
        <path id="Tracé_573" d="M53.726 29.5l28.226 16.1-28.226 16.3L25.5 45.6z" class="cls-5" data-name="Tracé 573" transform="translate(25.187 29.138)"/>
        <path id="Tracé_574" d="M39.7 86.5V53.9l28.226-16.3v32.6z" class="cls-6" data-name="Tracé 574" transform="translate(39.213 37.139)"/>
        <path id="Tracé_575" d="M25.5 70.2V37.6l28.226 16.3v32.6z" class="cls-7" data-name="Tracé 575" transform="translate(25.187 37.139)"/>
    </g>
</svg>
